<svg version="1.2" xmlns="http://www.w3.org/2000/svg" viewBox="0 0 436 158" width="436" height="158">
	<title>Главная страница-cdr</title>
	<defs>
		<clipPath clipPathUnits="userSpaceOnUse" id="cp1">
			<path d="m-1053-33h2480v3508h-2480z"/>
		</clipPath>
	</defs>
	<style>
		tspan { white-space:pre } 
		.s0 { fill: #fee0ed } 
		.s1 { fill: none;stroke: #2c2e35;stroke-width: 2.4 } 
		.s2 { fill: #2c2e35 } 
		.t3 { font-size: 33px;fill: #2c2e35;font-family: "Arial" } 
		.t4 { font-size: 25px;fill: #2c2e35;font-family: "Arial" } 
		.t5 { font-size: 100px;fill: #2c2e35;font-family: "Arial" } 
		.s6 { fill: #fbf7f3;stroke: #ffffff;stroke-width: 2.4 } 
		.s7 { fill: #ffffff;stroke: #ffffff;stroke-width: 2.4 } 
		.t8 { font-size: 26px;fill: #2c2e35;font-family: "Arial" } 
		.t9 { font-size: 45px;fill: #2c2e35;font-family: "Arial" } 
		.t10 { font-size: 81px;fill: #2c2e35;font-family: "Arial" } 
		.t11 { font-size: 58px;fill: #2c2e35;font-family: "Arial" } 
		.t12 { font-size: 33px;fill: #2c2e35;font-family: "Monotype Corsiva" } 
		.t13 { font-size: 29px;fill: #2c2e35;font-family: "Arial" } 
	</style>
	<g id="Page 1" clip-path="url(#cp1)">
		<g id="Group 1">
			<path id="Object 2" class="s0" d="m-1097.2-344.4h2484.5v145.6h-2484.5z"/>
			<path id="Object 3" class="s1" d="m-1048.6 289.9h2475v1139.7h-2475z"/>
			<path id="Object 4" fill-rule="evenodd" class="s2" d="m40 129.1c0 12.9-11.8 23.3-26.3 23.3-2.8 0-5.5-0.4-8.1-1.2v-73q0.7-0.4 1.6-0.7c2-0.7 4.2-1.1 6.5-1.1 9.8 0 17.6 7 17.6 15.6 0 6-3.8 11.2-9.4 13.8q-0.8 0.4-1.7 0.8c1.2 0.2 2.5 0.6 3.7 1 9.4 3.5 16.1 11.8 16.1 21.5zm-30.3-23.3h4c7.5 0 13.6-6.2 13.6-13.8 0-7.6-6.1-13.8-13.6-13.8q-2.1 0-4 0.6zm26.2 23.3c0-11.9-9.9-21.5-22.2-21.5h-4v42.6q1.9 0.4 4 0.4c12.3 0 22.2-9.7 22.2-21.5zm66.5 20.3q0.9 1 1.8 1.8h-24.5v-73.7h4.1q0 36 0 71.9zm41.5 1.8v-73.7h4v73.7zm77.5-13.9c-0.1 8.3-7.8 15.1-17.2 15.1-6.1 0-11.6-2.9-14.6-7.3q-1.3-1.8-1.9-3.8 1.7-1.8 3.4-3.6c0.1 2.8 1.1 5.3 2.6 7.4 2.3 3.3 6.2 5.5 10.5 5.5 7.2 0 13.1-6 13.1-13.3 0.1-1.3 0.6-4.5-1.7-9.3-5.8-12.6-18.5-12.3-25.3-24.9-1.4-2.5-2.7-6.5-2.6-11.6 0.1-8.3 7.8-15.1 17.2-15.1 6.1 0 11.6 2.9 14.6 7.3q1.3 1.8 1.9 3.8-1.7 1.8-3.4 3.5c-0.1-2.7-1.1-5.3-2.6-7.3-2.4-3.3-6.2-5.5-10.5-5.5-7.2 0-13.1 6-13.2 13.3 0 1.2-0.5 4.5 1.8 9.3 5.8 12.5 18.5 12.3 25.3 24.9 1.4 2.5 2.7 6.5 2.6 11.6zm73.4 0c-0.1 8.3-7.8 15.1-17.2 15.1-6.1 0-11.6-2.9-14.6-7.3q-1.3-1.8-1.9-3.8 1.7-1.8 3.4-3.6c0.1 2.8 1.1 5.3 2.6 7.4 2.4 3.3 6.2 5.5 10.5 5.5 7.3 0 13.1-6 13.2-13.3 0-1.3 0.5-4.5-1.7-9.3-5.9-12.6-18.6-12.3-25.4-24.9-1.4-2.5-2.7-6.5-2.6-11.6 0.1-8.3 7.8-15.1 17.2-15.1 6.1 0 11.6 2.9 14.6 7.3q1.3 1.8 1.9 3.8-1.7 1.8-3.4 3.5c-0.1-2.7-1.1-5.3-2.6-7.3-2.3-3.3-6.2-5.5-10.5-5.5-7.2 0-13.1 6-13.2 13.3 0 1.2-0.5 4.5 1.8 9.3 5.8 12.5 18.5 12.3 25.3 24.9 1.4 2.5 2.7 6.5 2.6 11.6zm62.4 12.1q0.8 0.9 1.7 1.8h-24.4v-73.7h24.4q-0.9 0.9-1.7 1.8h-18.6v25.5h16.3q-0.8 0.9-1.5 1.8h-14.8v42.8zm75.8-71.9q-0.9 0.9-1.8 1.8h-13.3v71.9h-4.1v-71.9h-15.2c0.6-0.6 1.2-1.2 1.8-1.8z"/>
			<path id="Object 5" class="s2" d="m136.4 13.8c-11.3 3.2-8.3 17-13.3 13.3-5.3-3.8-11.3-2.7-13.7 1-1.5 2.3-3.9 6.8 0.1 12.6 4.5 6.5 24.6 12.7 27.2 23.5-4.4-8.9-20.9-11.4-28.1-17-7.6-5.8-8.6-14.1-5.8-20.9 3.2-8 16.5-9.1 20.8-3.2 1.4-10.8 6.5-18.8 18.8-17.1 7.9 1 14 7.7 16.4 15 6.3 18.9-14.1 28.3-14.5 49.9-0.1-4.4 0-5.3-0.1-9 1.5-13 14.1-22.6 10-36.9-2.7-9.3-11.4-13-17.8-11.2z"/>
			<text id="BODYART
" style="transform: matrix(1,0,0,1,-819.253,252.562)" >
				<tspan x="0" y="0" class="t3">BODYART
</tspan>
			</text>
			<text id="О НАС
" style="transform: matrix(1,0,0,1,-581.943,16.305)" >
				<tspan x="0" y="0" class="t3">О НАС
</tspan>
			</text>
			<text id="ГЛАВНАЯ
" style="transform: matrix(1,0,0,1,-819.385,15.063)" >
				<tspan x="0" y="0" class="t3">ГЛАВНАЯ
</tspan>
			</text>
			<text id="INFO@BLISS" style="transform: matrix(1,0,0,1,969.347,24.671)" >
				<tspan x="0" y="0" class="t4">INFO@BLISSET.BY
</tspan>
			</text>
			<path id="Object 10" class="s1" d="m1238.8-11.1l91.7-112.5"/>
			<text id="АКТИВНАЯ С" style="transform: matrix(1,0,0,1,1333.142,-121.387)" >
				<tspan x="0" y="0" class="t3">АКТИВНАЯ ССЫЛКА НА ИНСТУ
</tspan>
			</text>
			<text id="КАТАЛОГ
" style="transform: matrix(1,0,0,1,-361.572,15.784)" >
				<tspan x="0" y="0" class="t3">КАТАЛОГ
</tspan>
			</text>
			<text id="ОДЕЖДА ДЛЯ" style="transform: matrix(1,0,0,1,-520.407,253.072)" >
				<tspan x="0" y="0" class="t3">ОДЕЖДА ДЛЯ ДОМА
</tspan>
			</text>
			<text id="УТРО НЕВЕС" style="transform: matrix(1,0,0,1,-107.499,252.087)" >
				<tspan x="0" y="0" class="t3">УТРО НЕВЕСТЫ
</tspan>
			</text>
			<path id="Object 15" class="s1" d="m1238.8-11.1l91.7-112.5"/>
			<text id="АКТИВНАЯ С" style="transform: matrix(1,0,0,1,1333.142,-121.387)" >
				<tspan x="0" y="0" class="t3">АКТИВНАЯ ССЫЛКА НА ИНСТУ
</tspan>
			</text>
			<text id="АКТИВНАЯ С" style="transform: matrix(1,0,0,1,1504.922,417.294)" >
				<tspan x="0" y="0" class="t3">АКТИВНАЯ ССЫЛКА НА ПОЧТУ
</tspan>
			</text>
			<path id="Object 18" class="s1" d="m1404.4 544.6l91.7-112.5"/>
			<path id="Object 19" class="s0" d="m2030.9 85.8h401.1v71.5h-401.1z"/>
			<path id="Object 20" fill-rule="evenodd" class="s2" d="m2188 131.6c0 4.8-4.4 8.7-9.8 8.7q-1.6 0-3.1-0.4v-27.2q0.3-0.2 0.6-0.3 1.2-0.4 2.5-0.4c3.6 0 6.5 2.6 6.5 5.8 0 2.3-1.4 4.2-3.5 5.2q-0.3 0.1-0.6 0.2 0.7 0.2 1.3 0.4c3.6 1.4 6.1 4.4 6.1 8zm-11.3-8.6h1.5c2.8 0 5-2.3 5-5.2 0-2.8-2.2-5.1-5-5.1q-0.8 0-1.5 0.2zm9.7 8.7c0-4.4-3.7-8-8.2-8h-1.5v15.8q0.7 0.2 1.5 0.2c4.5 0 8.2-3.6 8.2-8zm24.8 7.6q0.3 0.3 0.7 0.6h-9.1v-27.4h1.5q0 13.4 0 26.8zm15.4 0.6v-27.4h1.5v27.4zm28.9-5.2c0 3.1-2.9 5.7-6.4 5.7-2.3 0-4.3-1.1-5.4-2.8q-0.5-0.6-0.8-1.4 0.7-0.6 1.3-1.3c0.1 1 0.4 2 1 2.7 0.9 1.3 2.3 2.1 3.9 2.1 2.7 0 4.9-2.2 4.9-5 0-0.4 0.2-1.7-0.6-3.4-2.2-4.7-6.9-4.6-9.5-9.3-0.5-1-1-2.4-1-4.3 0.1-3.1 3-5.7 6.4-5.7 2.3 0 4.4 1.1 5.5 2.7q0.5 0.7 0.7 1.5-0.6 0.6-1.3 1.3c0-1-0.4-2-0.9-2.8-0.9-1.2-2.3-2-4-2-2.6 0-4.8 2.2-4.8 5-0.1 0.4-0.2 1.6 0.6 3.4 2.2 4.7 6.9 4.6 9.4 9.3 0.5 0.9 1 2.4 1 4.3zm27.4 0c-0.1 3.1-2.9 5.7-6.4 5.7-2.3 0-4.4-1.1-5.5-2.8q-0.5-0.6-0.7-1.4 0.6-0.6 1.3-1.3c0 1 0.4 2 0.9 2.7 0.9 1.3 2.3 2.1 4 2.1 2.6 0 4.8-2.2 4.9-5 0-0.4 0.1-1.7-0.7-3.4-2.2-4.7-6.9-4.6-9.4-9.3-0.5-1-1-2.4-1-4.3 0-3.1 2.9-5.7 6.4-5.7 2.3 0 4.3 1.1 5.4 2.7q0.5 0.7 0.8 1.5-0.7 0.6-1.3 1.3c-0.1-1-0.4-2-1-2.8-0.9-1.2-2.3-2-3.9-2-2.7 0-4.9 2.2-4.9 5 0 0.4-0.2 1.6 0.6 3.4 2.2 4.7 7 4.6 9.5 9.3 0.5 0.9 1 2.4 1 4.3zm23.2 4.6q0.3 0.3 0.7 0.6h-9.2v-27.4h9.2q-0.4 0.3-0.7 0.6h-6.9v9.5h6q-0.2 0.4-0.5 0.7h-5.5v16zm28.2-26.8q-0.3 0.3-0.7 0.6h-4.9v26.8h-1.5v-26.8h-5.7q0.3-0.3 0.7-0.6z"/>
			<path id="Object 21" class="s2" d="m2226.5 82.6c-4.5 1.3-3.3 6.8-5.2 5.3-2.1-1.5-4.5-1.1-5.4 0.4-0.6 0.9-1.5 2.7 0 5 1.8 2.5 9.7 5 10.7 9.2-1.7-3.5-8.2-4.5-11-6.7-3-2.3-3.4-5.5-2.3-8.2 1.2-3.2 6.5-3.6 8.1-1.3 0.6-4.2 2.6-7.4 7.5-6.7 3.1 0.4 5.5 3 6.4 5.9 2.5 7.5-5.5 11.1-5.7 19.6 0-1.7 0-2 0-3.5 0.6-5.1 5.5-8.9 3.9-14.5-1-3.7-4.5-5.2-7-4.5z"/>
			<text id="КОЛЛЕКЦИЯ " style="transform: matrix(1,0,0,1,244.247,252.572)" >
				<tspan x="0" y="0" class="t3">КОЛЛЕКЦИЯ БЕЛЬЯ
</tspan>
			</text>
			<text id="КУПАЛЬНИКИ" style="transform: matrix(1,0,0,1,658.493,253.421)" >
				<tspan x="0" y="0" class="t3">КУПАЛЬНИКИ
</tspan>
			</text>
			<text id="GIFT CERTI" style="transform: matrix(1,0,0,1,954.407,252.562)" >
				<tspan x="0" y="0" class="t3">GIFT CERTIFICATE
</tspan>
			</text>
			<text id="ВИДЕО
" style="transform: matrix(1,0,0,1,-683.717,479.282)" >
				<tspan x="0" y="0" class="t5">ВИДЕО
</tspan>
			</text>
			<path id="Object 26" class="s1" d="m-991.8 993.2l709.9-2.2"/>
			<path id="Object 27" class="s1" d="m-159.6 990.8h771.1"/>
			<path id="Object 28" class="s1" d="m694.5 997.3h674.9"/>
			<text id="3 РОЛИКА К" style="transform: matrix(1,0,0,1,-690.899,600.002)" >
				<tspan x="0" y="0" class="t5">3 РОЛИКА КАК В МИЛАВИЦЕ
</tspan>
			</text>
			<text id="СМЕНЯЕТСЯ " style="transform: matrix(1,0,0,1,-3114.094,1586.12)" >
				<tspan x="0" y="0" class="t5">СМЕНЯЕТСЯ ФОТО И НАДПИСЬ 2 РАЗА
</tspan>
			</text>
			<path id="Object 31" class="s6" d="m-854.2 1827.3h537.3v275.3h-537.3z"/>
			<text id="BRIDAL
" style="transform: matrix(1,0,0,1,-798.591,1933.044)" >
				<tspan x="0" y="0" class="t5">BRIDAL
</tspan>
			</text>
			<text id="MORNING
" style="transform: matrix(1,0,0,1,-753.543,2061.919)" >
				<tspan x="0" y="0" class="t5">MORNING
</tspan>
			</text>
			<path id="Object 34" class="s7" d="m-618.3 1726.9h242.4v43.7h-242.4z"/>
			<path id="Object 35" class="s7" d="m960.9 2184.4h327.1v31.3h-327.1z"/>
			<text id="СЕРИЯ «SIL" style="transform: matrix(1,0,0,1,970.421,2209.343)" >
				<tspan x="0" y="0" class="t8">СЕРИЯ «SILK&amp;TENDER»
</tspan>
			</text>
			<path id="Object 37" class="s6" d="m-726.6 2259.4h462.5v133.4h-462.5z"/>
			<text id="ВЫБЕРИ СВО" style="transform: matrix(1,0,0,1,-699.916,2319.573)" >
				<tspan x="0" y="0" class="t9">ВЫБЕРИ СВОЁ 
</tspan>
				<tspan x="0" y="54" class="t9">ИДЕАЛЬНОЕ УТРО
</tspan>
			</text>
			<path id="Object 39" class="s6" d="m1732.9 2292.5h541.8v175.1h-541.8z"/>
			<text id="ОДЕЖДА
ДЛЯ" style="transform: matrix(1,0,0,1,1832.421,2366.839)" >
				<tspan x="0" y="0" class="t10">ОДЕЖДА
</tspan>
				<tspan x="0" y="97.2" class="t10">ДЛЯ ДОМА
</tspan>
			</text>
			<path id="Object 41" class="s1" d="m-522.8 2882h469.6"/>
			<path id="Object 42" class="s1" d="m425.7 2882.3l471.8-1.9"/>
			<text id="@blissetof" style="transform: matrix(1,0,0,1,-0.958,2911.023)" >
				<tspan x="0" y="0" class="t11">@blissetofficial
</tspan>
			</text>
			<text id="@blissetwe" style="transform: matrix(1,0,0,1,-7.252,2998.496)" >
				<tspan x="0" y="0" class="t11">@blissetweddig
</tspan>
			</text>
			<path id="Object 45" class="s1" d="m-521.7 2973.6h469.6"/>
			<path id="Object 46" class="s1" d="m426.2 2979.9h469.6"/>
			<path id="Object 47" class="s0" d="m-1072.8 3112.8h2484.4v356.2h-2484.4z"/>
			<path id="Object 48" fill-rule="evenodd" class="s2" d="m-872.7 3200.8c0 4.7-4.2 8.5-9.5 8.5q-1.6 0-3-0.5v-26.5q0.3-0.1 0.6-0.2 1.1-0.4 2.4-0.4c3.5 0 6.4 2.5 6.4 5.6 0 2.2-1.4 4.1-3.4 5.1q-0.3 0.1-0.7 0.2 0.7 0.2 1.4 0.4c3.4 1.3 5.8 4.3 5.8 7.8zm-11-8.4h1.5c2.7 0 4.9-2.3 4.9-5.1 0-2.7-2.2-5-4.9-5q-0.8 0-1.5 0.3zm9.5 8.4c0-4.3-3.6-7.8-8-7.8h-1.5v15.5q0.7 0.1 1.5 0.1c4.4 0 8-3.5 8-7.8zm24.2 7.4q0.3 0.3 0.6 0.6h-8.9v-26.7h1.5q0 13 0 26.1zm15.1 0.6v-26.7h1.5v26.7zm28.1-5c0 3-2.8 5.5-6.3 5.5-2.2 0-4.2-1.1-5.3-2.7q-0.4-0.6-0.7-1.4 0.7-0.6 1.3-1.3c0 1 0.4 2 0.9 2.7 0.9 1.2 2.3 2 3.8 2 2.7 0 4.8-2.2 4.8-4.8 0-0.5 0.2-1.7-0.6-3.4-2.1-4.6-6.7-4.5-9.2-9-0.5-1-1-2.4-1-4.2 0.1-3.1 2.9-5.5 6.3-5.5 2.2 0 4.2 1 5.3 2.6q0.5 0.7 0.7 1.4-0.6 0.6-1.3 1.3c0-1-0.3-1.9-0.9-2.7-0.8-1.2-2.2-2-3.8-2-2.6 0-4.8 2.2-4.8 4.9 0 0.4-0.2 1.6 0.6 3.3 2.2 4.6 6.8 4.5 9.2 9.1 0.5 0.9 1 2.3 1 4.2zm26.6 0c0 3-2.8 5.5-6.2 5.5-2.2 0-4.2-1.1-5.3-2.7q-0.5-0.6-0.7-1.4 0.6-0.6 1.3-1.3c0 1 0.3 2 0.9 2.7 0.8 1.2 2.2 2 3.8 2 2.6 0 4.8-2.2 4.8-4.8 0-0.5 0.2-1.7-0.6-3.4-2.2-4.6-6.8-4.5-9.3-9-0.4-1-0.9-2.4-0.9-4.2 0-3.1 2.8-5.5 6.2-5.5 2.3 0 4.3 1 5.3 2.6q0.5 0.7 0.7 1.4-0.6 0.6-1.2 1.3c0-1-0.4-1.9-0.9-2.7-0.9-1.2-2.3-2-3.9-2-2.6 0-4.7 2.2-4.7 4.9 0 0.4-0.2 1.6 0.6 3.3 2.1 4.6 6.7 4.5 9.2 9.1 0.5 0.9 1 2.3 0.9 4.2zm22.7 4.4q0.3 0.3 0.6 0.6h-8.9v-26.7h8.9q-0.3 0.3-0.6 0.6h-6.8v9.3h6q-0.3 0.3-0.6 0.6h-5.4v15.6zm27.6-26.1q-0.4 0.3-0.7 0.6h-4.8v26.1h-1.5v-26.1h-5.5q0.3-0.3 0.6-0.6z"/>
			<path id="Object 49" class="s2" d="m-838 3150.4c-4.1 1.2-3 6.1-4.8 4.8-1.9-1.4-4-1-4.9 0.4-0.5 0.8-1.4 2.4 0 4.5 1.6 2.3 8.9 4.6 9.8 8.4-1.6-3.1-7.5-4.1-10.1-6.1-2.7-2.1-3.1-5-2.1-7.5 1.2-2.9 6-3.3 7.5-1.2 0.5-3.8 2.3-6.7 6.8-6.1 2.8 0.4 5 2.8 5.9 5.4 2.2 6.8-5.1 10.2-5.3 17.9 0-1.5 0-1.9 0-3.2 0.5-4.7 5.1-8.1 3.6-13.2-0.9-3.4-4.1-4.8-6.4-4.1z"/>
			<text id="     Масте" style="transform: matrix(1,0,0,1,-985.408,3270.413)" >
				<tspan x="0" y="0" class="t12">     Мастерски изготовленное
</tspan>
				<tspan x="0" y="39.6" class="t12">роскошное белья, одежда
</tspan>
				<tspan x="0" y="79.2" class="t12">для дома, будуарные наряды 
</tspan>
				<tspan x="0" y="118.8" class="t12">для Утра невесты, созданные 
</tspan>
				<tspan x="0" y="158.4" class="t12">женщинами для женщин
</tspan>
			</text>
			<text id="МЫ РАДЫ ВА" style="transform: matrix(1,0,0,1,-345.983,3209.376)" >
				<tspan x="0" y="0" class="t12">МЫ РАДЫ ВАМ ПОМОЧЬ
</tspan>
			</text>
			<text id="Свяжитесь " style="transform: matrix(1,0,0,1,-342.691,3267.034)" >
				<tspan x="0" y="0" class="t12">Свяжитесь с нами
</tspan>
			</text>
			<text id="Руководств" style="transform: matrix(1,0,0,1,-345.972,3334.3)" >
				<tspan x="0" y="0" class="t12">Руководство размерам
</tspan>
			</text>
			<text id="Руководств" style="transform: matrix(1,0,0,1,-348.94,3404.093)" >
				<tspan x="0" y="0" class="t12">Руководство по уходу
</tspan>
			</text>
			<text id="ИНФОРМАЦИЯ" style="transform: matrix(1,0,0,1,302.033,3210.626)" >
				<tspan x="0" y="0" class="t12">ИНФОРМАЦИЯ ПО ЗАКАЗУ
</tspan>
			</text>
			<text id="Заказ и до" style="transform: matrix(1,0,0,1,299.244,3269.793)" >
				<tspan x="0" y="0" class="t12">Заказ и доставка
</tspan>
			</text>
			<text id="Возврат и " style="transform: matrix(1,0,0,1,295.344,3332.317)" >
				<tspan x="0" y="0" class="t12">Возврат и обмен
</tspan>
			</text>
			<text id="Договор пу" style="transform: matrix(1,0,0,1,292.545,3404.093)" >
				<tspan x="0" y="0" class="t12">Договор публичной оферты
</tspan>
			</text>
			<text id="КОНТАКТЫ
" style="transform: matrix(1,0,0,1,1037.629,3210.552)" >
				<tspan x="0" y="0" class="t12">КОНТАКТЫ
</tspan>
			</text>
			<text id="+375 (29) " style="transform: matrix(1,0,0,1,1035.338,3259.377)" >
				<tspan x="0" y="0" class="t13">+375 (29) 619-04-82
</tspan>
				<tspan x="0" y="34.8" class="t13">+375 (29) 713-94-35
</tspan>
			</text>
			<text id="
" style="transform: matrix(1,0,0,1,2090.204,3357.184)" >
			</text>
		</g>
	</g>
</svg>